<svg width="260" height="240" viewBox="0 0 260 240" fill="none" xmlns="http://www.w3.org/2000/svg">
  <path d="M43 95C43 70.7 82 51 130 51C178 51 217 70.7 217 95V158C217 182.3 178 202 130 202C82 202 43 182.3 43 158V95Z" fill="#F9D4E5"/>
  <path d="M43 95C43 119.3 82 139 130 139C178 139 217 119.3 217 95C217 70.7 178 51 130 51C82 51 43 70.7 43 95Z" fill="#FFF5F8"/>
  <path d="M54 113C69.3 128.6 97.3 139 130 139C162.7 139 190.7 128.6 206 113V153C206 173.5 172 190 130 190C88 190 54 173.5 54 153V113Z" fill="#D4001F"/>
  <path d="M55 94C55 77.4 88.6 64 130 64C171.4 64 205 77.4 205 94C205 110.6 171.4 124 130 124C88.6 124 55 110.6 55 94Z" fill="#FFF8F4"/>
  <path d="M72 96C72 84.4 98 75 130 75C162 75 188 84.4 188 96C188 107.6 162 117 130 117C98 117 72 107.6 72 96Z" fill="#F7BFD8"/>
  <path d="M75 97C90.5 108 111.1 111 130 111C148.9 111 169.5 108 185 97" stroke="#D4001F" stroke-width="8" stroke-linecap="round"/>
  <path d="M81 133C91.5 140.8 108.8 146 130 146C151.2 146 168.5 140.8 179 133" stroke="#FFF8F4" stroke-width="7" stroke-linecap="round"/>
  <path d="M93 157C102.7 163.5 116 167 130 167C144 167 157.3 163.5 167 157" stroke="#F7BFD8" stroke-width="7" stroke-linecap="round"/>
  <path d="M96 41C96 30 111.2 21 130 21C148.8 21 164 30 164 41V66C164 77 148.8 86 130 86C111.2 86 96 77 96 66V41Z" fill="#D4001F"/>
  <path d="M96 41C96 52 111.2 61 130 61C148.8 61 164 52 164 41C164 30 148.8 21 130 21C111.2 21 96 30 96 41Z" fill="#FFF8F4"/>
  <path d="M112 42C112 36.5 120.1 32 130 32C139.9 32 148 36.5 148 42C148 47.5 139.9 52 130 52C120.1 52 112 47.5 112 42Z" fill="#F7BFD8"/>
  <path d="M130 14V31" stroke="#651727" stroke-width="6" stroke-linecap="round"/>
  <path d="M130 7C137 12 137 18 130 23C123 18 123 12 130 7Z" fill="#D4001F"/>
  <path d="M31 203C31 193.6 75.3 186 130 186C184.7 186 229 193.6 229 203C229 212.4 184.7 220 130 220C75.3 220 31 212.4 31 203Z" fill="#651727" fill-opacity="0.11"/>
</svg>
